<mxfile host="65bd71144e">
    <diagram id="Tu6ReNi1Lv_SqtANjlML" name="Page-1">
        <mxGraphModel dx="548" dy="376" grid="1" gridSize="10" guides="1" tooltips="1" connect="1" arrows="1" fold="1" page="1" pageScale="1" pageWidth="850" pageHeight="1100" background="#ffffff" math="0" shadow="0">
            <root>
                <mxCell id="0"/>
                <mxCell id="1" parent="0"/>
                <mxCell id="2" value="Scheduler" style="rounded=1;whiteSpace=wrap;html=1;fillColor=#fad7ac;strokeColor=#b46504;fontColor=#000000;fontFamily=Tahoma;" vertex="1" parent="1">
                    <mxGeometry x="280" y="160" width="240" height="30" as="geometry"/>
                </mxCell>
                <mxCell id="3" value="Fetcher" style="rounded=1;whiteSpace=wrap;html=1;fillColor=#fad9d5;strokeColor=#ae4132;fontColor=#000000;fontFamily=Tahoma;" vertex="1" parent="1">
                    <mxGeometry x="280" y="200" width="240" height="30" as="geometry"/>
                </mxCell>
                <mxCell id="4" value="Decoder" style="rounded=1;whiteSpace=wrap;html=1;fillColor=#b0e3e6;strokeColor=#0e8088;fontColor=#000000;fontFamily=Tahoma;" vertex="1" parent="1">
                    <mxGeometry x="280" y="240" width="240" height="30" as="geometry"/>
                </mxCell>
                <mxCell id="17" value="" style="group;fontColor=#FFFFFF;" vertex="1" connectable="0" parent="1">
                    <mxGeometry x="270" y="290" width="120" height="60" as="geometry"/>
                </mxCell>
                <mxCell id="6" value="" style="rounded=0;whiteSpace=wrap;html=1;fontFamily=Tahoma;fontColor=#000000;fillColor=none;strokeWidth=0.5;strokeColor=#000000;" vertex="1" parent="17">
                    <mxGeometry width="120" height="60" as="geometry"/>
                </mxCell>
                <mxCell id="7" value="LSU" style="rounded=0;whiteSpace=wrap;html=1;strokeWidth=0.5;fontFamily=Tahoma;fillColor=#fad9d5;strokeColor=#ae4132;fontColor=#000000;" vertex="1" parent="17">
                    <mxGeometry x="5" y="5" width="30" height="20" as="geometry"/>
                </mxCell>
                <mxCell id="11" value="Register File" style="rounded=0;whiteSpace=wrap;html=1;strokeWidth=0.5;fontFamily=Tahoma;fillColor=#ffe6cc;strokeColor=#d79b00;fontColor=#000000;" vertex="1" parent="17">
                    <mxGeometry x="5" y="35" width="110" height="20" as="geometry"/>
                </mxCell>
                <mxCell id="23" value="" style="group" vertex="1" connectable="0" parent="17">
                    <mxGeometry x="19.909999999999968" y="5" width="95.09000000000003" height="30" as="geometry"/>
                </mxCell>
                <mxCell id="8" value="ALU" style="rounded=0;whiteSpace=wrap;html=1;strokeWidth=0.5;fontFamily=Tahoma;fillColor=#d5e8d4;strokeColor=#82b366;fontColor=#000000;" vertex="1" parent="23">
                    <mxGeometry x="25.090000000000032" width="30" height="20" as="geometry"/>
                </mxCell>
                <mxCell id="9" value="PC" style="rounded=0;whiteSpace=wrap;html=1;strokeWidth=0.5;fontFamily=Tahoma;fillColor=#d0cee2;strokeColor=#56517e;fontColor=#000000;" vertex="1" parent="23">
                    <mxGeometry x="65.09000000000003" width="30" height="20" as="geometry"/>
                </mxCell>
                <mxCell id="19" value="" style="endArrow=none;html=1;strokeColor=#FFFFFF;fontFamily=Tahoma;fontColor=#000000;" edge="1" parent="23">
                    <mxGeometry width="50" height="50" relative="1" as="geometry">
                        <mxPoint y="30" as="sourcePoint"/>
                        <mxPoint y="20" as="targetPoint"/>
                    </mxGeometry>
                </mxCell>
                <mxCell id="20" value="" style="endArrow=none;html=1;strokeColor=#FFFFFF;fontFamily=Tahoma;fontColor=#000000;" edge="1" parent="23">
                    <mxGeometry width="50" height="50" relative="1" as="geometry">
                        <mxPoint x="40" y="30" as="sourcePoint"/>
                        <mxPoint x="40" y="20" as="targetPoint"/>
                    </mxGeometry>
                </mxCell>
                <mxCell id="21" value="" style="endArrow=none;html=1;strokeColor=#FFFFFF;fontFamily=Tahoma;fontColor=#000000;" edge="1" parent="23">
                    <mxGeometry width="50" height="50" relative="1" as="geometry">
                        <mxPoint x="25.090000000000032" y="9.899999999999977" as="sourcePoint"/>
                        <mxPoint x="15.090000000000032" y="9.899999999999977" as="targetPoint"/>
                    </mxGeometry>
                </mxCell>
                <mxCell id="22" value="" style="endArrow=none;html=1;strokeColor=#FFFFFF;fontFamily=Tahoma;fontColor=#000000;" edge="1" parent="23">
                    <mxGeometry width="50" height="50" relative="1" as="geometry">
                        <mxPoint x="65.09000000000003" y="9.899999999999977" as="sourcePoint"/>
                        <mxPoint x="55.09000000000003" y="9.899999999999977" as="targetPoint"/>
                    </mxGeometry>
                </mxCell>
                <mxCell id="92" value="" style="group;fontColor=#FFFFFF;" vertex="1" connectable="0" parent="1">
                    <mxGeometry x="410" y="290" width="140" height="140" as="geometry"/>
                </mxCell>
                <mxCell id="93" value="" style="rounded=0;whiteSpace=wrap;html=1;fontFamily=Tahoma;fontColor=#000000;fillColor=none;strokeWidth=0.5;strokeColor=#000000;" vertex="1" parent="92">
                    <mxGeometry width="120" height="60" as="geometry"/>
                </mxCell>
                <mxCell id="94" value="LSU" style="rounded=0;whiteSpace=wrap;html=1;strokeWidth=0.5;fontFamily=Tahoma;fillColor=#fad9d5;strokeColor=#ae4132;fontColor=#000000;" vertex="1" parent="92">
                    <mxGeometry x="5" y="5" width="30" height="20" as="geometry"/>
                </mxCell>
                <mxCell id="95" value="Register File" style="rounded=0;whiteSpace=wrap;html=1;strokeWidth=0.5;fontFamily=Tahoma;fillColor=#ffe6cc;strokeColor=#d79b00;fontColor=#000000;" vertex="1" parent="92">
                    <mxGeometry x="5" y="35" width="110" height="20" as="geometry"/>
                </mxCell>
                <mxCell id="96" value="" style="group" vertex="1" connectable="0" parent="92">
                    <mxGeometry x="19.909999999999968" y="5" width="120.09000000000003" height="135" as="geometry"/>
                </mxCell>
                <mxCell id="97" value="ALU" style="rounded=0;whiteSpace=wrap;html=1;strokeWidth=0.5;fontFamily=Tahoma;fillColor=#d5e8d4;strokeColor=#82b366;fontColor=#000000;" vertex="1" parent="96">
                    <mxGeometry x="25.090000000000032" width="30" height="20" as="geometry"/>
                </mxCell>
                <mxCell id="98" value="PC" style="rounded=0;whiteSpace=wrap;html=1;strokeWidth=0.5;fontFamily=Tahoma;fillColor=#d0cee2;strokeColor=#56517e;fontColor=#000000;" vertex="1" parent="96">
                    <mxGeometry x="65.09000000000003" width="30" height="20" as="geometry"/>
                </mxCell>
                <mxCell id="99" value="" style="endArrow=none;html=1;strokeColor=#FFFFFF;fontFamily=Tahoma;fontColor=#000000;" edge="1" parent="96">
                    <mxGeometry width="50" height="50" relative="1" as="geometry">
                        <mxPoint y="30" as="sourcePoint"/>
                        <mxPoint y="20" as="targetPoint"/>
                    </mxGeometry>
                </mxCell>
                <mxCell id="100" value="" style="endArrow=none;html=1;strokeColor=#FFFFFF;fontFamily=Tahoma;fontColor=#000000;" edge="1" parent="96">
                    <mxGeometry width="50" height="50" relative="1" as="geometry">
                        <mxPoint x="40" y="30" as="sourcePoint"/>
                        <mxPoint x="40" y="20" as="targetPoint"/>
                    </mxGeometry>
                </mxCell>
                <mxCell id="101" value="" style="endArrow=none;html=1;strokeColor=#FFFFFF;fontFamily=Tahoma;fontColor=#000000;" edge="1" parent="96">
                    <mxGeometry width="50" height="50" relative="1" as="geometry">
                        <mxPoint x="25.090000000000032" y="9.899999999999977" as="sourcePoint"/>
                        <mxPoint x="15.090000000000032" y="9.899999999999977" as="targetPoint"/>
                    </mxGeometry>
                </mxCell>
                <mxCell id="102" value="" style="endArrow=none;html=1;strokeColor=#FFFFFF;fontFamily=Tahoma;fontColor=#000000;" edge="1" parent="96">
                    <mxGeometry width="50" height="50" relative="1" as="geometry">
                        <mxPoint x="65.09000000000003" y="9.899999999999977" as="sourcePoint"/>
                        <mxPoint x="55.09000000000003" y="9.899999999999977" as="targetPoint"/>
                    </mxGeometry>
                </mxCell>
                <mxCell id="91" value="" style="rounded=0;whiteSpace=wrap;html=1;fillColor=none;strokeColor=#000000;" vertex="1" parent="92">
                    <mxGeometry x="-150" y="-140" width="280" height="280" as="geometry"/>
                </mxCell>
                <mxCell id="104" value="" style="group;fontColor=#FFFFFF;" vertex="1" connectable="0" parent="1">
                    <mxGeometry x="410" y="360" width="120" height="60" as="geometry"/>
                </mxCell>
                <mxCell id="105" value="" style="rounded=0;whiteSpace=wrap;html=1;fontFamily=Tahoma;fontColor=#000000;fillColor=none;strokeWidth=0.5;strokeColor=#000000;" vertex="1" parent="104">
                    <mxGeometry width="120" height="60" as="geometry"/>
                </mxCell>
                <mxCell id="106" value="LSU" style="rounded=0;whiteSpace=wrap;html=1;strokeWidth=0.5;fontFamily=Tahoma;fillColor=#fad9d5;strokeColor=#ae4132;fontColor=#000000;" vertex="1" parent="104">
                    <mxGeometry x="5" y="5" width="30" height="20" as="geometry"/>
                </mxCell>
                <mxCell id="107" value="Register File" style="rounded=0;whiteSpace=wrap;html=1;strokeWidth=0.5;fontFamily=Tahoma;fillColor=#ffe6cc;strokeColor=#d79b00;fontColor=#000000;" vertex="1" parent="104">
                    <mxGeometry x="5" y="35" width="110" height="20" as="geometry"/>
                </mxCell>
                <mxCell id="108" value="" style="group" vertex="1" connectable="0" parent="104">
                    <mxGeometry x="19.909999999999968" y="5" width="95.09000000000003" height="30" as="geometry"/>
                </mxCell>
                <mxCell id="109" value="ALU" style="rounded=0;whiteSpace=wrap;html=1;strokeWidth=0.5;fontFamily=Tahoma;fillColor=#d5e8d4;strokeColor=#82b366;fontColor=#000000;" vertex="1" parent="108">
                    <mxGeometry x="25.090000000000032" width="30" height="20" as="geometry"/>
                </mxCell>
                <mxCell id="110" value="PC" style="rounded=0;whiteSpace=wrap;html=1;strokeWidth=0.5;fontFamily=Tahoma;fillColor=#d0cee2;strokeColor=#56517e;fontColor=#000000;" vertex="1" parent="108">
                    <mxGeometry x="65.09000000000003" width="30" height="20" as="geometry"/>
                </mxCell>
                <mxCell id="111" value="" style="endArrow=none;html=1;strokeColor=#FFFFFF;fontFamily=Tahoma;fontColor=#000000;" edge="1" parent="108">
                    <mxGeometry width="50" height="50" relative="1" as="geometry">
                        <mxPoint y="30" as="sourcePoint"/>
                        <mxPoint y="20" as="targetPoint"/>
                    </mxGeometry>
                </mxCell>
                <mxCell id="112" value="" style="endArrow=none;html=1;strokeColor=#FFFFFF;fontFamily=Tahoma;fontColor=#000000;" edge="1" parent="108">
                    <mxGeometry width="50" height="50" relative="1" as="geometry">
                        <mxPoint x="40" y="30" as="sourcePoint"/>
                        <mxPoint x="40" y="20" as="targetPoint"/>
                    </mxGeometry>
                </mxCell>
                <mxCell id="113" value="" style="endArrow=none;html=1;strokeColor=#FFFFFF;fontFamily=Tahoma;fontColor=#000000;" edge="1" parent="108">
                    <mxGeometry width="50" height="50" relative="1" as="geometry">
                        <mxPoint x="25.090000000000032" y="9.899999999999977" as="sourcePoint"/>
                        <mxPoint x="15.090000000000032" y="9.899999999999977" as="targetPoint"/>
                    </mxGeometry>
                </mxCell>
                <mxCell id="114" value="" style="endArrow=none;html=1;strokeColor=#FFFFFF;fontFamily=Tahoma;fontColor=#000000;" edge="1" parent="108">
                    <mxGeometry width="50" height="50" relative="1" as="geometry">
                        <mxPoint x="65.09000000000003" y="9.899999999999977" as="sourcePoint"/>
                        <mxPoint x="55.09000000000003" y="9.899999999999977" as="targetPoint"/>
                    </mxGeometry>
                </mxCell>
                <mxCell id="115" value="" style="group;fontColor=#FFFFFF;" vertex="1" connectable="0" parent="1">
                    <mxGeometry x="270" y="360" width="120" height="60" as="geometry"/>
                </mxCell>
                <mxCell id="116" value="" style="rounded=0;whiteSpace=wrap;html=1;fontFamily=Tahoma;fontColor=#000000;fillColor=none;strokeWidth=0.5;strokeColor=#000000;" vertex="1" parent="115">
                    <mxGeometry width="120" height="60" as="geometry"/>
                </mxCell>
                <mxCell id="117" value="LSU" style="rounded=0;whiteSpace=wrap;html=1;strokeWidth=0.5;fontFamily=Tahoma;fillColor=#fad9d5;strokeColor=#ae4132;fontColor=#000000;" vertex="1" parent="115">
                    <mxGeometry x="5" y="5" width="30" height="20" as="geometry"/>
                </mxCell>
                <mxCell id="118" value="Register File" style="rounded=0;whiteSpace=wrap;html=1;strokeWidth=0.5;fontFamily=Tahoma;fillColor=#ffe6cc;strokeColor=#d79b00;fontColor=#000000;" vertex="1" parent="115">
                    <mxGeometry x="5" y="35" width="110" height="20" as="geometry"/>
                </mxCell>
                <mxCell id="119" value="" style="group" vertex="1" connectable="0" parent="115">
                    <mxGeometry x="19.909999999999968" y="5" width="95.09000000000003" height="30" as="geometry"/>
                </mxCell>
                <mxCell id="120" value="ALU" style="rounded=0;whiteSpace=wrap;html=1;strokeWidth=0.5;fontFamily=Tahoma;fillColor=#d5e8d4;strokeColor=#82b366;fontColor=#000000;" vertex="1" parent="119">
                    <mxGeometry x="25.090000000000032" width="30" height="20" as="geometry"/>
                </mxCell>
                <mxCell id="121" value="PC" style="rounded=0;whiteSpace=wrap;html=1;strokeWidth=0.5;fontFamily=Tahoma;fillColor=#d0cee2;strokeColor=#56517e;fontColor=#000000;" vertex="1" parent="119">
                    <mxGeometry x="65.09000000000003" width="30" height="20" as="geometry"/>
                </mxCell>
                <mxCell id="122" value="" style="endArrow=none;html=1;strokeColor=#FFFFFF;fontFamily=Tahoma;fontColor=#000000;" edge="1" parent="119">
                    <mxGeometry width="50" height="50" relative="1" as="geometry">
                        <mxPoint y="30" as="sourcePoint"/>
                        <mxPoint y="20" as="targetPoint"/>
                    </mxGeometry>
                </mxCell>
                <mxCell id="123" value="" style="endArrow=none;html=1;strokeColor=#FFFFFF;fontFamily=Tahoma;fontColor=#000000;" edge="1" parent="119">
                    <mxGeometry width="50" height="50" relative="1" as="geometry">
                        <mxPoint x="40" y="30" as="sourcePoint"/>
                        <mxPoint x="40" y="20" as="targetPoint"/>
                    </mxGeometry>
                </mxCell>
                <mxCell id="124" value="" style="endArrow=none;html=1;strokeColor=#FFFFFF;fontFamily=Tahoma;fontColor=#000000;" edge="1" parent="119">
                    <mxGeometry width="50" height="50" relative="1" as="geometry">
                        <mxPoint x="25.090000000000032" y="9.899999999999977" as="sourcePoint"/>
                        <mxPoint x="15.090000000000032" y="9.899999999999977" as="targetPoint"/>
                    </mxGeometry>
                </mxCell>
                <mxCell id="125" value="" style="endArrow=none;html=1;strokeColor=#FFFFFF;fontFamily=Tahoma;fontColor=#000000;" edge="1" parent="119">
                    <mxGeometry width="50" height="50" relative="1" as="geometry">
                        <mxPoint x="65.09000000000003" y="9.899999999999977" as="sourcePoint"/>
                        <mxPoint x="55.09000000000003" y="9.899999999999977" as="targetPoint"/>
                    </mxGeometry>
                </mxCell>
            </root>
        </mxGraphModel>
    </diagram>
</mxfile>